HIERARCHY
ROOT hip
{
	OFFSET 0.000000 0.000000 0.000000 
	CHANNELS 6 Xposition Yposition Zposition Xrotation Zrotation Yrotation
	JOINT abdomen
	{
		OFFSET 0.000000 3.402643 0.000000 
		CHANNELS 3 Xrotation Zrotation Yrotation
		JOINT chest
		{
			OFFSET 0.000000 8.438565 -0.680529 
			CHANNELS 3 Xrotation Zrotation Yrotation
			JOINT neck
			{
				OFFSET 0.000000 10.207942 -0.272212 
				CHANNELS 3 Xrotation Zrotation Yrotation
				JOINT head
				{
					OFFSET 0.000000 3.130431 0.000000 
					CHANNELS 3 Xrotation Zrotation Yrotation
					End Site
					{
						OFFSET 0.000000 3.130435 0.000000 
					}
				}
			}
			JOINT lCollar
			{
				OFFSET 3.470700 6.669187 -0.816635 
				CHANNELS 3 Yrotation Zrotation Xrotation
				JOINT lShldr
				{
					OFFSET 3.198488 0.000000 0.000000 
					CHANNELS 3 Zrotation Yrotation Xrotation
					JOINT lForeArm
					{
						OFFSET 10.139888 0.000000 0.000000 
						CHANNELS 3 Yrotation Zrotation Xrotation
						JOINT lHand
						{
							OFFSET 8.370511 0.000000 0.000000 
							CHANNELS 3 Zrotation Yrotation Xrotation
							End Site
							{
								OFFSET 4.083176 0.000000 0.000000 
							}
						}
					}
				}
			}
			JOINT rCollar
			{
				OFFSET -3.470700 6.669187 -0.816635 
				CHANNELS 3 Yrotation Zrotation Xrotation
				JOINT rShldr
				{
					OFFSET -3.198488 0.000000 0.000000 
					CHANNELS 3 Zrotation Yrotation Xrotation
					JOINT rForeArm
					{
						OFFSET -10.139888 0.000000 0.000000 
						CHANNELS 3 Yrotation Zrotation Xrotation
						JOINT rHand
						{
							OFFSET -8.370511 0.000000 0.000000 
							CHANNELS 3 Zrotation Yrotation Xrotation
							End Site
							{
								OFFSET -4.083176 0.000000 0.000000 
							}
						}
					}
				}
			}
		}
	}
	JOINT lThigh
	{
		OFFSET 5.308129 -1.633274 1.361059 
		CHANNELS 3 Xrotation Zrotation Yrotation
		JOINT lShin
		{
			OFFSET -2.041588 -20.007561 0.000000 
			CHANNELS 3 Xrotation Zrotation Yrotation
			JOINT lFoot
			{
				OFFSET 0.000000 -19.190928 -1.224953 
				CHANNELS 3 Xrotation Yrotation Zrotation
				End Site
				{
					OFFSET 0.000000 -2.449906 4.627600 
				}
			}
		}
	}
	JOINT rThigh
	{
		OFFSET -5.308129 -1.633274 1.361059 
		CHANNELS 3 Xrotation Zrotation Yrotation
		JOINT rShin
		{
			OFFSET 2.041588 -20.007561 0.000000 
			CHANNELS 3 Xrotation Zrotation Yrotation
			JOINT rFoot
			{
				OFFSET 0.000000 -19.190928 -1.224953 
				CHANNELS 3 Xrotation Yrotation Zrotation
				End Site
				{
					OFFSET 0.000000 -2.449906 4.627600 
				}
			}
		}
	}
}
MOTION
Frames: 18
Frame Time: 0.033333
0.022954 45.949978 0.979154 -0.673828 -1.943359 7.128906 22.649149 -12.899888 -10.596670 -2.587890 9.208985 12.159764 20.666895 7.697700 0.479033 -4.648439 -1.757813 -7.871095 2.000000 -2.000000 0.000000 -61.874996 21.289063 -3.922234 -55.201614 -25.437302 81.527428 -23.587244 -2.372971 -57.382244 -2.000000 2.000000 0.000000 45.820313 -27.998045 55.444630 73.824783 -27.537197 55.384869 34.824150 0.740203 -80.498215 21.364300 -1.170743 15.649992 0.243999 3.087934 1.516558 12.887194 -25.029394 4.056263 19.807217 3.201862 1.800409 -1.285670 -0.710183 -1.015868 15.689124 -4.547468 7.907474 
-0.062875 45.855709 1.039364 -0.722656 -2.617188 6.826172 22.649149 -12.899888 -10.596670 -2.685546 9.824219 12.296589 20.505703 7.447589 0.457587 -4.404298 -1.630859 -7.685548 2.000000 -2.000000 0.000000 -62.265625 21.103514 -3.834374 -54.297661 -26.225225 79.962776 -22.684256 -3.869770 -56.865044 -2.000000 2.000000 0.000000 46.015625 -27.880859 55.581371 75.400551 -26.748741 54.913391 34.329735 0.561784 -80.404556 21.558636 -0.222909 15.955861 0.205548 2.736380 1.434947 12.925551 -25.035528 3.183326 20.052084 4.139335 2.080992 -1.620575 -1.024107 -1.143814 15.720455 -4.128593 7.993281 
-0.187778 45.761395 1.125375 -0.908203 -3.554688 6.298223 22.649149 -12.899888 -10.596670 -2.666014 10.722657 12.501818 20.376724 7.027510 0.423574 -3.945314 -1.425781 -7.451173 2.000000 -2.000000 0.000000 -62.626953 21.132813 -4.296875 -52.914501 -27.125509 76.804260 -21.446602 -5.851941 -56.286160 -2.000000 2.000000 0.000000 45.976566 -27.695313 55.903664 76.823601 -26.091047 53.602177 34.730263 0.284190 -80.423958 22.016100 1.124664 16.397812 0.096835 2.141552 1.279809 12.808886 -24.519651 2.802741 21.181025 6.103174 2.651043 -3.343421 -2.727988 -1.633143 16.479557 -3.058078 8.157260 
-0.217325 45.762508 1.105176 -0.722656 -3.720703 6.250000 22.649149 -12.899888 -10.596670 -2.841796 10.908204 12.521379 20.163851 6.919854 0.429977 -3.525392 -1.503906 -7.470704 2.000000 -2.000000 0.000000 -62.822262 21.083982 -4.234768 -51.613850 -27.637020 71.522110 -20.419373 -7.779227 -55.823524 -2.000000 2.000000 0.000000 45.800781 -27.314453 55.972080 77.555344 -25.335417 50.555771 35.323513 -0.615896 -80.521011 21.717289 1.338364 16.491161 0.243072 2.074550 1.287775 12.772235 -24.415615 2.923105 21.536036 6.882536 2.866555 -4.428870 -3.949250 -1.952435 17.072735 -2.618235 8.459583 
-0.176224 45.794064 0.959689 0.146484 -3.320314 6.552166 22.649149 -12.899888 -10.596670 -3.496093 10.546876 12.335773 19.789715 7.088356 0.434128 -3.476564 -1.708984 -7.705079 2.000000 -2.000000 0.000000 -63.095703 20.869141 -3.707457 -50.489262 -27.661886 65.065849 -19.967785 -9.175831 -55.503841 -2.000000 2.000000 0.000000 45.546875 -26.806641 55.771484 78.066628 -24.950714 48.264790 36.286579 -1.236366 -80.659424 20.263151 0.625783 16.396547 0.702317 2.568757 1.321700 12.818988 -24.770290 3.343719 19.849560 6.209664 2.689177 -3.279545 -3.678507 -1.843129 16.788191 -3.147722 8.623218 
-0.123298 45.679661 0.792909 1.728516 -2.724609 6.582031 22.649149 -12.899888 -10.596670 -4.921875 9.921876 11.972658 19.291670 7.088357 0.434128 -3.564454 -1.835938 -7.792968 2.000000 -2.000000 0.000000 -63.564453 20.742188 -3.658648 -49.579453 -27.654882 59.433292 -19.498091 -10.699567 -55.125874 -2.000000 2.000000 0.000000 45.253906 -26.376951 55.513241 80.031494 -26.294106 54.644535 39.391430 1.404236 -80.735245 18.030636 -0.524862 16.179478 1.268118 3.210744 1.425912 12.546227 -24.693348 4.341062 16.899784 4.696036 2.228185 -1.112602 -2.389646 -1.375344 16.029976 -3.805037 8.376846 
-0.243808 45.624432 0.887217 1.386719 -3.222656 5.761169 22.649149 -12.899888 -10.596670 -4.755860 10.302734 12.080077 19.298508 6.698696 0.405310 -3.701172 -1.601562 -6.816407 2.000000 -2.000000 0.000000 -63.798828 21.132813 -4.785157 -48.761757 -28.179781 55.331665 -19.449903 -12.605262 -54.410099 -2.000000 2.000000 0.000000 45.175781 -25.654299 55.947266 80.897377 -27.243128 58.551292 40.995090 3.892621 -80.653793 18.758488 0.361926 16.411301 1.189371 2.693615 1.381584 11.815072 -23.421347 5.257652 16.853149 5.263418 2.381555 -0.157082 -2.131245 -1.226296 15.470874 -3.329319 7.816937 
-0.215668 45.637539 0.881719 1.289063 -2.968750 5.917969 22.649149 -12.899888 -10.596670 -4.716797 10.107423 12.052495 19.270060 6.648964 0.402950 -3.896485 -1.289063 -6.806642 2.000000 -2.000000 0.000000 -63.652344 20.869141 -4.625426 -48.450283 -28.620625 52.019539 -19.924427 -14.871393 -53.328674 -2.000000 2.000000 0.000000 45.087891 -25.507813 55.923527 81.370979 -28.260298 61.271633 41.416252 6.583159 -80.355705 18.786213 0.001016 16.313194 1.265625 2.894574 1.379227 11.565147 -23.216206 5.931652 16.907997 4.881071 2.278242 -0.049366 -1.933007 -1.188638 15.415092 -3.477875 8.080812 
-0.173170 45.632172 0.876178 1.240234 -2.656250 6.064000 22.649149 -12.899888 -10.596670 -4.736326 9.931641 12.003637 19.203537 6.538383 0.390036 -4.023438 -0.957031 -7.109375 2.000000 -2.000000 0.000000 -63.242191 20.849607 -4.384766 -48.909019 -29.257977 49.796154 -20.228931 -17.805178 -52.017765 -2.000000 2.000000 0.000000 44.775391 -25.634766 55.957031 82.627449 -29.334553 64.695160 41.765533 9.618592 -79.918976 18.733339 -0.495968 16.157894 1.373656 3.179100 1.425106 11.646648 -23.405849 5.363824 17.212486 4.598248 2.204443 -0.517229 -2.095143 -1.263849 15.563342 -3.458735 8.413750 
-0.167216 45.614628 0.870817 1.259766 -2.656250 5.946813 22.649149 -12.899888 -10.596670 -4.746094 10.000001 12.021485 18.979759 6.488651 0.387679 -3.906250 -1.191406 -7.412109 2.000000 -2.000000 0.000000 -62.841797 21.171875 -4.365234 -50.429195 -29.678555 49.302200 -20.015451 -20.994009 -50.848122 -2.000000 2.000000 0.000000 44.062496 -25.791016 56.064449 85.366959 -30.261885 69.438110 42.992203 12.804303 -79.385132 18.666756 -0.555021 16.138559 1.511157 3.258755 1.452610 11.743372 -23.573822 4.441786 17.386789 4.695816 2.265661 -0.858894 -2.320809 -1.382428 15.626848 -3.256460 8.460331 
-0.203046 45.592010 0.862189 1.337891 -2.880859 5.673828 22.649149 -12.899888 -10.596670 -4.833983 10.175780 12.052505 18.706980 6.448573 0.383862 -3.681641 -1.640625 -7.402345 2.000000 -2.000000 0.000000 -62.558598 21.650393 -4.687500 -53.157497 -29.665169 51.213371 -19.853746 -23.390522 -50.007164 -2.000000 2.000000 0.000000 43.076168 -25.820311 56.181641 89.272011 -30.982212 75.127472 45.580280 15.961329 -78.834579 18.536152 -0.241419 16.241602 1.630691 3.146579 1.422334 11.765328 -23.494318 3.888607 17.207085 5.009896 2.331851 -0.711917 -2.455854 -1.366765 15.345164 -2.999246 8.131443 
-0.229860 45.583668 0.853741 1.464844 -2.988281 5.409647 22.649149 -12.899888 -10.596670 -4.941406 10.214845 12.042747 18.513468 6.340913 0.390266 -3.681641 -1.679688 -7.138672 2.000000 -2.000000 0.000000 -62.324219 22.255859 -5.019532 -56.234825 -30.078831 51.168758 -20.202904 -24.575008 -49.325035 -2.000000 2.000000 0.000000 42.275387 -25.751955 56.230469 93.682076 -31.723671 81.744965 49.407570 19.430435 -78.123985 18.457773 -0.075129 16.286098 1.619641 3.064902 1.432586 11.776645 -23.399330 3.662945 16.957823 5.125829 2.345765 -0.448850 -2.423427 -1.333697 14.831606 -2.824729 7.445291 
-0.257010 45.596066 0.883668 1.308594 -3.134766 5.009765 22.649149 -12.899888 -10.596670 -4.814452 10.332031 12.081830 18.478191 6.100440 0.368421 -3.710938 -1.455078 -6.767580 2.000000 -2.000000 0.000000 -62.099609 23.027342 -5.377041 -60.015793 -30.386986 51.597172 -21.144430 -25.766253 -48.259209 -2.000000 2.000000 0.000000 42.011723 -25.400391 56.265343 98.128746 -32.588512 89.471207 54.013260 23.792604 -76.941444 18.773607 0.187388 16.378361 1.571919 2.843614 1.336131 11.758523 -23.100929 3.259056 17.285931 5.329180 2.409826 -0.623781 -2.502015 -1.354422 14.404705 -2.497355 6.666169 
-0.290270 45.606220 0.932405 1.015625 -3.398427 4.579514 22.649149 -12.899888 -10.596670 -4.628905 10.595703 12.169765 18.589703 5.831001 0.349892 -3.886718 -0.898438 -6.318513 2.000000 -2.000000 0.000000 -61.806641 23.613281 -5.683592 -63.445053 -30.674923 52.552105 -21.491156 -27.810078 -47.213009 -2.000000 2.000000 0.000000 42.148438 -24.892578 56.167763 102.354431 -33.154484 97.522629 58.732784 28.852102 -74.931114 19.142132 0.676152 16.503836 1.784151 2.468446 1.275481 11.694191 -22.891161 2.645076 17.978840 5.710086 2.549873 -1.200708 -2.672376 -1.476608 14.408424 -2.044181 6.116636 
-0.270594 45.624046 0.948844 0.869141 -3.281250 4.589844 22.649149 -12.899888 -10.596670 -4.580078 10.478518 12.150213 18.717533 5.770152 0.339341 -4.238282 -0.146484 -6.083985 2.000000 -2.000000 0.000000 -61.562504 23.583984 -5.507813 -65.976517 -30.935911 53.993774 -20.894251 -30.157709 -46.693672 -2.000000 2.000000 0.000000 42.207031 -24.423828 55.781246 106.139130 -33.127125 104.613846 63.158985 33.770706 -72.191231 19.134733 0.655778 16.509336 2.185958 2.393369 1.209912 11.695659 -23.111588 2.289939 18.401825 5.545208 2.507009 -1.670222 -2.595337 -1.495503 14.591535 -1.999588 6.067120 
-0.196751 45.668369 0.938733 0.732422 -2.792963 4.980004 22.649149 -12.899888 -10.596670 -4.501954 9.990234 12.050781 18.832195 5.940124 0.353147 -4.453127 0.058594 -6.289063 2.000000 -2.000000 0.000000 -61.406250 22.783203 -4.966922 -66.947334 -31.184517 56.386436 -19.525473 -32.735584 -46.657700 -2.000000 2.000000 0.000000 41.962891 -24.101564 55.419918 109.261208 -32.584541 110.414948 67.187859 37.999355 -69.019035 19.088676 0.010677 16.296154 2.380813 2.627178 1.246388 11.763561 -23.418993 2.713942 18.585426 4.793118 2.270992 -1.747056 -2.223257 -1.401647 14.610027 -2.351121 6.212604 
-0.120497 45.723228 0.913994 0.527344 -2.470703 5.429726 22.649149 -12.899888 -10.596670 -4.326170 9.658204 12.013356 18.935772 6.190253 0.374601 -4.511719 -0.146484 -6.757817 2.000000 -2.000000 0.000000 -61.386723 21.376953 -4.550782 -65.474411 -31.629387 59.203602 -16.791479 -36.078476 -47.416813 -2.000000 2.000000 0.000000 41.611328 -23.730467 55.249973 111.094635 -31.618849 114.928276 70.734039 41.535458 -65.649353 19.153656 -0.535140 16.099686 2.358260 2.955406 1.316315 11.780206 -23.478432 3.725395 18.573746 4.179561 2.090480 -1.326456 -1.822898 -1.287929 14.441465 -2.791134 6.475682 
-0.080841 45.791096 0.890794 0.292969 -2.470703 5.654338 22.649149 -12.899888 -10.596670 -4.160155 9.697267 12.042661 19.138622 6.329798 0.382070 -4.599610 -0.351562 -7.197267 2.000000 -2.000000 0.000000 -61.914059 19.736326 -4.381469 -60.566704 -31.402195 61.485382 -13.157433 -38.957836 -49.171741 -2.000000 2.000000 0.000000 41.474609 -22.734377 55.068363 110.244896 -30.195976 116.996468 73.014732 44.121292 -62.544567 19.312304 -0.623431 16.057386 2.348441 3.159933 1.336601 11.759470 -23.407381 4.340209 18.428312 4.060742 2.067647 -0.723174 -1.591035 -1.201501 14.490353 -3.092852 6.812552 
